# xmcd
#
# Track frame offsets: 
#        150
#        5248
#        19953
#        36350
#        52986
#        77821
#        89758
#        113246
#        126440
#        142810
#        194491
#        214178
#        252235
#        274788
#        290876
#
# Disc length: 4024 seconds
#
# Revision: 4
# Processed by: cddbd v1.5.2PL0 Copyright (c) Steve Scherf et al.
# Submitted via: ExactAudioCopy v0.99pb4
#
DISCID=eb0fb60f
DTITLE=Александр Розенбаум - Концерт На ЛОМО
DYEAR=1999
DGENRE=Chanson
TTITLE0=Вступительное Слово
TTITLE1=Предрассветный Вальс
TTITLE2=Налетела Грусть
TTITLE3=Белая Ночь
TTITLE4=Воспоминания
TTITLE5=Расплатился За Все
TTITLE6=Бездомная Комната
TTITLE7=Рождение Стихов
TTITLE8=Зависть
TTITLE9=Дорога На Ваганьково
TTITLE10=Платформа Счастья
TTITLE11=В Афганистане
TTITLE12=Проводи-Ка Меня, Батя, На Войну
TTITLE13=Скрипач Моня
TTITLE14=Судьба Не Простая
EXTD=Запись - Рафаил. Записано в ДК ЛОМО (Ленинград) 1987 год\n\nЦифро
EXTD=вой ремастеринг - студия "Ночное такси", С.Петербург, 1999 год\n©
EXTD=1999 А.Розенбаум - И.М-А\n(P) 1999 RMG Records - А.Фрумин\nRMG 9
EXTD=83-2 CDRDM 502080\n\nЗвукорежиссер мастеринга - А.Грякалов\nИздат
EXTD=ель - И.М.Мелик-Адамов\nПродюсер - А.Фрумин\nПродюсер А.Розенбаум
EXTD=а - Б.Купсина
EXTT0=
EXTT1=
EXTT2=
EXTT3=
EXTT4=
EXTT5=
EXTT6=
EXTT7=
EXTT8=
EXTT9=
EXTT10=
EXTT11=
EXTT12=
EXTT13=
EXTT14=
PLAYORDER=
